# xmcd CD database file
#
# Track frame offsets:
#	150
#	81317
#	101685
#	119560
#	138667
#	162200
#	184435
#	205347
#	223430
#	245155
#
# Disc length: 3530 seconds
#
# Revision: 1
# Processed by: cddbd v1.4PL0 Copyright (c) Steve Scherf et al.
# Submitted via: CDex 1.50
#
DISCID=a50dc80a
DTITLE=Gilberto Santa Rosa - El Caballero De La Salsa (Vol 2)
DYEAR=1997
DGENRE=Salsa
TTITLE0=Dance Mix (Extended Version)
TTITLE1=Cantante De Cartel
TTITLE2=Me Gustas
TTITLE3=Yo Te Conozco
TTITLE4=Si Decides Regresar
TTITLE5=Mix (Radio Version)
TTITLE6=Desayuno
TTITLE7=Desde Mi Balcón
TTITLE8=Nunca Más
TTITLE9=Goza De Mí
EXTD=YEAR: 1997
EXTT0=
EXTT1=
EXTT2=
EXTT3=
EXTT4=
EXTT5=
EXTT6=
EXTT7=
EXTT8=
EXTT9=
PLAYORDER=
